<!--Handcrafted by Saleh Riaz Qureshi - www.salehriaz.com - salehriazq@gmail.com - dribbble.com/salehriaz - behance.net/salehriaz - twitter.com/salehriazq - facebook.com/salehriazqureshi - instagram.com/salehriaz

Please use this SVG with attribution to the author i.e Saleh Riaz
-->

<svg xmlns="http://www.w3.org/2000/svg" viewBox="0 0 95.99 32.63"><defs><style>.cls-1{fill:#fff;}.cls-2{fill:#ffcb39;}</style></defs><title>logo</title><g id="Layer_2" data-name="Layer 2"><g id="Layer_1-2" data-name="Layer 1"><path class="cls-1" d="M4.89,5.55A7.78,7.78,0,0,1,9.72,6.79a5.14,5.14,0,0,1,1.84,4.09,4.22,4.22,0,0,1-2.22,3.88A4.65,4.65,0,0,1,11.91,16a5,5,0,0,1,1.42,3.7,5.28,5.28,0,0,1-1.69,4,7.25,7.25,0,0,1-5,1.6H0V5.55Zm-1,8.21h1.1c.59,0,3-.06,3-2.58,0-1.81-1.39-2.49-3-2.49H3.85Zm0,8.42H5.51a5.26,5.26,0,0,0,2.64-.53,2.55,2.55,0,0,0,1.22-2.28,2.37,2.37,0,0,0-1.45-2.25,6.28,6.28,0,0,0-2.64-.39H3.85Z"/><path class="cls-1" d="M25.77,5.55V22h6.1v3.32h-10V5.55Z"/><path class="cls-1" d="M69.68,8.87V25.31H65.83V8.87H61.38V5.55H74.12V8.87Z"/><path class="cls-1" d="M86.39,22h9.13v3.32H80l9.6-16.45H81.5V5.55H96Z"/><path class="cls-2" d="M56.82,11.25H49.11L56.26,0h-9L38.82,16.88h6.64L38.82,32.63Z"/></g></g></svg>